<svg viewBox="0 0 1400 1800" xmlns="http://www.w3.org/2000/svg">
  <defs>
    <style>
      .class-box { fill: #f8f9fa; stroke: #343a40; stroke-width: 2; }
      .abstract-class { fill: #e9ecef; stroke: #6c757d; stroke-width: 2; }
      .utility-class { fill: #d1ecf1; stroke: #0c5460; stroke-width: 2; }
      .service-class { fill: #d4edda; stroke: #155724; stroke-width: 2; }
      .title-text { font-family: Arial, sans-serif; font-size: 14px; font-weight: bold; fill: #212529; }
      .field-text { font-family: Arial, sans-serif; font-size: 12px; fill: #495057; }
      .method-text { font-family: Arial, sans-serif; font-size: 11px; fill: #6c757d; }
      .section-text { font-family: Arial, sans-serif; font-size: 16px; font-weight: bold; fill: #007bff; }
      .inheritance-line { stroke: #28a745; stroke-width: 2; fill: none; }
      .composition-line { stroke: #dc3545; stroke-width: 2; fill: none; }
      .dependency-line { stroke: #ffc107; stroke-width: 1; stroke-dasharray: 3,3; fill: none; }
    </style>
  </defs>
  
  <!-- Background -->
  <rect width="1400" height="1800" fill="#ffffff"/>
  
  <!-- Title -->
  <text x="700" y="30" class="section-text" text-anchor="middle" font-size="20">E-commerce System - Class Diagram</text>
  
  <!-- UTILITY LAYER -->
  <text x="50" y="70" class="section-text">UTILITY LAYER</text>
  
  <!-- ValidationUtils -->
  <rect x="50" y="80" width="200" height="120" class="utility-class"/>
  <text x="150" y="100" class="title-text" text-anchor="middle">ValidationUtils</text>
  <text x="150" y="115" class="field-text" text-anchor="middle">&lt;&lt;utility&gt;&gt;</text>
  <line x1="50" y1="120" x2="250" y2="120" stroke="#343a40" stroke-width="1"/>
  <text x="60" y="135" class="method-text">+validateNotNull(Object, String): void</text>
  <text x="60" y="150" class="method-text">+validatePositiveNumber(double, String): void</text>
  <text x="60" y="165" class="method-text">+validatePositiveInteger(int, String): void</text>
  <text x="60" y="180" class="method-text">+validateNonEmptyString(String, String): void</text>
  
  <!-- FormatUtils -->
  <rect x="280" y="80" width="180" height="100" class="utility-class"/>
  <text x="370" y="100" class="title-text" text-anchor="middle">FormatUtils</text>
  <text x="370" y="115" class="field-text" text-anchor="middle">&lt;&lt;utility&gt;&gt;</text>
  <line x1="280" y1="120" x2="460" y2="120" stroke="#343a40" stroke-width="1"/>
  <text x="290" y="135" class="method-text">+formatMoney(double): String</text>
  <text x="290" y="150" class="method-text">+formatWeight(double): String</text>
  <text x="290" y="165" class="method-text">+formatDate(LocalDate): String</text>
  
  <!-- DateUtils -->
  <rect x="490" y="80" width="180" height="100" class="utility-class"/>
  <text x="580" y="100" class="title-text" text-anchor="middle">DateUtils</text>
  <text x="580" y="115" class="field-text" text-anchor="middle">&lt;&lt;utility&gt;&gt;</text>
  <line x1="490" y1="120" x2="670" y2="120" stroke="#343a40" stroke-width="1"/>
  <text x="500" y="135" class="method-text">+isExpired(LocalDate): boolean</text>
  <text x="500" y="150" class="method-text">+daysBetween(LocalDate, LocalDate): long</text>
  
  <!-- MODEL LAYER -->
  <text x="50" y="240" class="section-text">MODEL LAYER - PRODUCTS</text>
  
  <!-- Product (Abstract) -->
  <rect x="400" y="260" width="220" height="180" class="abstract-class"/>
  <text x="510" y="280" class="title-text" text-anchor="middle">Product</text>
  <text x="510" y="295" class="field-text" text-anchor="middle">&lt;&lt;abstract&gt;&gt;</text>
  <line x1="400" y1="300" x2="620" y2="300" stroke="#343a40" stroke-width="1"/>
  <text x="410" y="315" class="field-text">-name: String</text>
  <text x="410" y="330" class="field-text">-price: double</text>
  <text x="410" y="345" class="field-text">-quantity: int</text>
  <line x1="400" y1="350" x2="620" y2="350" stroke="#343a40" stroke-width="1"/>
  <text x="410" y="365" class="method-text">+getName(): String</text>
  <text x="410" y="380" class="method-text">+getPrice(): double</text>
  <text x="410" y="395" class="method-text">+getQuantity(): int</text>
  <text x="410" y="410" class="method-text">+setQuantity(int): void</text>
  <text x="410" y="425" class="method-text">+isAvailable(): boolean</text>
  
  <!-- PerishableProduct -->
  <rect x="50" y="480" width="200" height="120" class="class-box"/>
  <text x="150" y="500" class="title-text" text-anchor="middle">PerishableProduct</text>
  <line x1="50" y1="505" x2="250" y2="505" stroke="#343a40" stroke-width="1"/>
  <text x="60" y="520" class="field-text">-expiryDate: LocalDate</text>
  <line x1="50" y1="525" x2="250" y2="525" stroke="#343a40" stroke-width="1"/>
  <text x="60" y="540" class="method-text">+getExpiryDate(): LocalDate</text>
  <text x="60" y="555" class="method-text">+hasExpiry(): boolean</text>
  <text x="60" y="570" class="method-text">+isExpired(): boolean</text>
  <text x="60" y="585" class="method-text">+isShippable(): boolean</text>
  
  <!-- ShippableProduct -->
  <rect x="280" y="480" width="200" height="120" class="class-box"/>
  <text x="380" y="500" class="title-text" text-anchor="middle">ShippableProduct</text>
  <line x1="280" y1="505" x2="480" y2="505" stroke="#343a40" stroke-width="1"/>
  <text x="290" y="520" class="field-text">-weight: double</text>
  <line x1="280" y1="525" x2="480" y2="525" stroke="#343a40" stroke-width="1"/>
  <text x="290" y="540" class="method-text">+getWeight(): double</text>
  <text x="290" y="555" class="method-text">+isShippable(): boolean</text>
  <text x="290" y="570" class="method-text">+hasExpiry(): boolean</text>
  <text x="290" y="585" class="method-text">+isExpired(): boolean</text>
  
  <!-- PerishableShippableProduct -->
  <rect x="510" y="480" width="220" height="140" class="class-box"/>
  <text x="620" y="500" class="title-text" text-anchor="middle">PerishableShippableProduct</text>
  <line x1="510" y1="505" x2="730" y2="505" stroke="#343a40" stroke-width="1"/>
  <text x="520" y="520" class="field-text">-expiryDate: LocalDate</text>
  <text x="520" y="535" class="field-text">-weight: double</text>
  <line x1="510" y1="540" x2="730" y2="540" stroke="#343a40" stroke-width="1"/>
  <text x="520" y="555" class="method-text">+getExpiryDate(): LocalDate</text>
  <text x="520" y="570" class="method-text">+getWeight(): double</text>
  <text x="520" y="585" class="method-text">+hasExpiry(): boolean</text>
  <text x="520" y="600" class="method-text">+isExpired(): boolean</text>
  <text x="520" y="615" class="method-text">+isShippable(): boolean</text>
  
  <!-- NonShippableProduct -->
  <rect x="760" y="480" width="180" height="120" class="class-box"/>
  <text x="850" y="500" class="title-text" text-anchor="middle">NonShippableProduct</text>
  <line x1="760" y1="505" x2="940" y2="505" stroke="#343a40" stroke-width="1"/>
  <text x="770" y="520" class="method-text">+isShippable(): boolean</text>
  <text x="770" y="535" class="method-text">+getWeight(): double</text>
  <text x="770" y="550" class="method-text">+hasExpiry(): boolean</text>
  <text x="770" y="565" class="method-text">+getExpiryDate(): LocalDate</text>
  <text x="770" y="580" class="method-text">+isExpired(): boolean</text>
  
  <!-- MODEL LAYER - DOMAIN MODELS -->
  <text x="50" y="680" class="section-text">MODEL LAYER - DOMAIN MODELS</text>
  
  <!-- Customer -->
  <rect x="50" y="700" width="180" height="120" class="class-box"/>
  <text x="140" y="720" class="title-text" text-anchor="middle">Customer</text>
  <line x1="50" y1="725" x2="230" y2="725" stroke="#343a40" stroke-width="1"/>
  <text x="60" y="740" class="field-text">-name: String</text>
  <text x="60" y="755" class="field-text">-balance: double</text>
  <line x1="50" y1="760" x2="230" y2="760" stroke="#343a40" stroke-width="1"/>
  <text x="60" y="775" class="method-text">+getName(): String</text>
  <text x="60" y="790" class="method-text">+getBalance(): double</text>
  <text x="60" y="805" class="method-text">+deductBalance(double): void</text>
  
  <!-- CartItem -->
  <rect x="260" y="700" width="180" height="120" class="class-box"/>
  <text x="350" y="720" class="title-text" text-anchor="middle">CartItem</text>
  <line x1="260" y1="725" x2="440" y2="725" stroke="#343a40" stroke-width="1"/>
  <text x="270" y="740" class="field-text">-product: Product</text>
  <text x="270" y="755" class="field-text">-quantity: int</text>
  <line x1="260" y1="760" x2="440" y2="760" stroke="#343a40" stroke-width="1"/>
  <text x="270" y="775" class="method-text">+getProduct(): Product</text>
  <text x="270" y="790" class="method-text">+getQuantity(): int</text>
  <text x="270" y="805" class="method-text">+getTotalPrice(): double</text>
  
  <!-- Cart -->
  <rect x="470" y="700" width="180" height="120" class="class-box"/>
  <text x="560" y="720" class="title-text" text-anchor="middle">Cart</text>
  <line x1="470" y1="725" x2="650" y2="725" stroke="#343a40" stroke-width="1"/>
  <text x="480" y="740" class="field-text">-items: List&lt;CartItem&gt;</text>
  <line x1="470" y1="745" x2="650" y2="745" stroke="#343a40" stroke-width="1"/>
  <text x="480" y="760" class="method-text">+addProduct(Product, int): void</text>
  <text x="480" y="775" class="method-text">+removeProduct(Product): void</text>
  <text x="480" y="790" class="method-text">+getSubtotal(): double</text>
  <text x="480" y="805" class="method-text">+isEmpty(): boolean</text>
  
  <!-- CheckoutResult -->
  <rect x="680" y="700" width="200" height="140" class="class-box"/>
  <text x="780" y="720" class="title-text" text-anchor="middle">CheckoutResult</text>
  <line x1="680" y1="725" x2="880" y2="725" stroke="#343a40" stroke-width="1"/>
  <text x="690" y="740" class="field-text">-subtotal: double</text>
  <text x="690" y="755" class="field-text">-shippingFee: double</text>
  <text x="690" y="770" class="field-text">-totalAmount: double</text>
  <text x="690" y="785" class="field-text">-success: boolean</text>
  <line x1="680" y1="790" x2="880" y2="790" stroke="#343a40" stroke-width="1"/>
  <text x="690" y="805" class="method-text">+getSubtotal(): double</text>
  <text x="690" y="820" class="method-text">+isSuccess(): boolean</text>
  <text x="690" y="835" class="method-text">+getErrorMessage(): String</text>
  
  <!-- ShippingCalculator -->
  <rect x="910" y="700" width="180" height="120" class="class-box"/>
  <text x="1000" y="720" class="title-text" text-anchor="middle">ShippingCalculator</text>
  <line x1="910" y1="725" x2="1090" y2="725" stroke="#343a40" stroke-width="1"/>
  <text x="920" y="740" class="field-text">-baseShippingFee: double</text>
  <text x="920" y="755" class="field-text">-weightMultiplier: double</text>
  <line x1="910" y1="760" x2="1090" y2="760" stroke="#343a40" stroke-width="1"/>
  <text x="920" y="775" class="method-text">+calculateShipping(double): double</text>
  <text x="920" y="790" class="method-text">+getBaseShippingFee(): double</text>
  
  <!-- SERVICE LAYER -->
  <text x="50" y="900" class="section-text">SERVICE LAYER</text>
  
  <!-- ValidationService -->
  <rect x="50" y="920" width="220" height="100" class="service-class"/>
  <text x="160" y="940" class="title-text" text-anchor="middle">ValidationService</text>
  <line x1="50" y1="945" x2="270" y2="945" stroke="#343a40" stroke-width="1"/>
  <text x="60" y="960" class="method-text">+validateCustomerForCheckout(Customer): void</text>
  <text x="60" y="975" class="method-text">+validateCartForCheckout(Cart): void</text>
  <text x="60" y="990" class="method-text">+validateStockSufficiency(Product, int): void</text>
  <text x="60" y="1005" class="method-text">+validateProductForCart(Product): void</text>
  
  <!-- ProductService -->
  <rect x="300" y="920" width="240" height="120" class="service-class"/>
  <text x="420" y="940" class="title-text" text-anchor="middle">ProductService</text>
  <line x1="300" y1="945" x2="540" y2="945" stroke="#343a40" stroke-width="1"/>
  <text x="310" y="960" class="method-text">+createProduct(String, double, int): Product</text>
  <text x="310" y="975" class="method-text">+createPerishableProduct(...): PerishableProduct</text>
  <text x="310" y="990" class="method-text">+createShippableProduct(...): ShippableProduct</text>
  <text x="310" y="1005" class="method-text">+isProductAvailable(Product): boolean</text>
  <text x="310" y="1020" class="method-text">+reduceStock(Product, int): void</text>
  
  <!-- CartService -->
  <rect x="570" y="920" width="220" height="120" class="service-class"/>
  <text x="680" y="940" class="title-text" text-anchor="middle">CartService</text>
  <line x1="570" y1="945" x2="790" y2="945" stroke="#343a40" stroke-width="1"/>
  <text x="580" y="960" class="method-text">+addProductToCart(Cart, Product, int): void</text>
  <text x="580" y="975" class="method-text">+removeProductFromCart(Cart, Product): void</text>
  <text x="580" y="990" class="method-text">+calculateSubtotal(Cart): double</text>
  <text x="580" y="1005" class="method-text">+calculateTotalWeight(Cart): double</text>
  <text x="580" y="1020" class="method-text">+isCartEmpty(Cart): boolean</text>
  
  <!-- ShippingService -->
  <rect x="820" y="920" width="200" height="120" class="service-class"/>
  <text x="920" y="940" class="title-text" text-anchor="middle">ShippingService</text>
  <line x1="820" y1="945" x2="1020" y2="945" stroke="#343a40" stroke-width="1"/>
  <text x="830" y="960" class="field-text">-shippingCalculator: ShippingCalculator</text>
  <line x1="820" y1="965" x2="1020" y2="965" stroke="#343a40" stroke-width="1"/>
  <text x="830" y="980" class="method-text">+calculateShippingFee(Cart): double</text>
  <text x="830" y="995" class="method-text">+printShipmentNotice(Cart): void</text>
  <text x="830" y="1010" class="method-text">+hasShippableItems(Cart): boolean</text>
  
  <!-- CheckoutService -->
  <rect x="1050" y="920" width="220" height="120" class="service-class"/>
  <text x="1160" y="940" class="title-text" text-anchor="middle">CheckoutService</text>
  <line x1="1050" y1="945" x2="1270" y2="945" stroke="#343a40" stroke-width="1"/>
  <text x="1060" y="960" class="field-text">-shippingService: ShippingService</text>
  <line x1="1050" y1="965" x2="1270" y2="965" stroke="#343a40" stroke-width="1"/>
  <text x="1060" y="980" class="method-text">+processCheckout(Customer, Cart): CheckoutResult</text>
  <text x="1060" y="995" class="method-text">+printCheckoutReceipt(CheckoutResult): void</text>
  
  <!-- APPLICATION LAYER -->
  <text x="50" y="1100" class="section-text">APPLICATION LAYER</text>
  
  <!-- ECommerceApplication -->
  <rect x="50" y="1120" width="250" height="140" class="class-box"/>
  <text x="175" y="1140" class="title-text" text-anchor="middle">ECommerceApplication</text>
  <line x1="50" y1="1145" x2="300" y2="1145" stroke="#343a40" stroke-width="1"/>
  <text x="60" y="1160" class="field-text">-products: List&lt;Product&gt;</text>
  <text x="60" y="1175" class="field-text">-checkoutService: CheckoutService</text>
  <line x1="50" y1="1180" x2="300" y2="1180" stroke="#343a40" stroke-width="1"/>
  <text x="60" y="1195" class="method-text">+addProduct(Product): void</text>
  <text x="60" y="1210" class="method-text">+getProduct(String): Product</text>
  <text x="60" y="1225" class="method-text">+createCart(): Cart</text>
  <text x="60" y="1240" class="method-text">+addToCart(Cart, Product, int): void</text>
  <text x="60" y="1255" class="method-text">+checkout(Customer, Cart): CheckoutResult</text>
  
  <!-- ECommerceDemo -->
  <rect x="350" y="1120" width="220" height="120" class="class-box"/>
  <text x="460" y="1140" class="title-text" text-anchor="middle">ECommerceDemo</text>
  <line x1="350" y1="1145" x2="570" y2="1145" stroke="#343a40" stroke-width="1"/>
  <text x="360" y="1160" class="method-text">+main(String[]): void</text>
  <text x="360" y="1175" class="method-text">+demonstrateBasicFunctionality(): void</text>
  <text x="360" y="1190" class="method-text">+demonstrateErrorHandling(): void</text>
  <text x="360" y="1205" class="method-text">+demonstrateProductTypes(): void</text>
  <text x="360" y="1220" class="method-text">+createSampleProducts(): List&lt;Product&gt;</text>
  <text x="360" y="1235" class="method-text">+createSampleCustomer(): Customer</text>
  
  <!-- RELATIONSHIPS -->
  
  <!-- Inheritance arrows (Product hierarchy) -->
  <line x1="150" y1="480" x2="450" y2="440" class="inheritance-line"/>
  <polygon points="450,440 445,445 445,435" fill="#28a745"/>
  
  <line x1="380" y1="480" x2="480" y2="440" class="inheritance-line"/>
  <polygon points="480,440 475,445 475,435" fill="#28a745"/>
  
  <line x1="620" y1="480" x2="540" y2="440" class="inheritance-line"/>
  <polygon points="540,440 535,445 535,435" fill="#28a745"/>
  
  <line x1="850" y1="480" x2="580" y2="440" class="inheritance-line"/>
  <polygon points="580,440 575,445 575,435" fill="#28a745"/>
  
  <!-- Composition arrows -->
  <line x1="470" y1="760" x2="440" y2="760" class="composition-line"/>
  <polygon points="440,760 450,765 450,755" fill="#dc3545"/>
  
  <line x1="350" y1="700" x2="450" y2="440" class="composition-line"/>
  <polygon points="450,440 445,445 445,435" fill="#dc3545"/>
  
  <!-- Service dependencies -->
  <line x1="920" y1="920" x2="1000" y2="820" class="dependency-line"/>
  <line x1="1050" y1="980" x2="1020" y2="980" class="dependency-line"/>
  <line x1="175" y1="1120" x2="1160" y2="1040" class="dependency-line"/>
  
  <!-- Legend -->
  <text x="1100" y="1350" class="section-text">LEGEND</text>
  <line x1="1100" y1="1370" x2="1150" y2="1370" class="inheritance-line"/>
  <polygon points="1150,1370 1145,1375 1145,1365" fill="#28a745"/>
  <text x="1160" y="1375" class="method-text">Inheritance</text>
  
  <line x1="1100" y1="1390" x2="1150" y2="1390" class="composition-line"/>
  <polygon points="1150,1390 1145,1395 1145,1385" fill="#dc3545"/>
  <text x="1160" y="1395" class="method-text">Composition</text>
  
  <line x1="1100" y1="1410" x2="1150" y2="1410" class="dependency-line"/>
  <text x="1160" y="1415" class="method-text">Dependency</text>
  
</svg>